<?xml version="1.0" encoding="UTF-8"?>
<svg id="Camada_2" data-name="Camada 2" xmlns="http://www.w3.org/2000/svg" viewBox="0 0 1920 1080">
  <defs>
    <style>
      .cls-1 {
        fill: #0081fb;
      }

      .cls-2 {
        fill: #fff;
      }
    </style>
  </defs>
  <g id="Camada_1-2" data-name="Camada 1">
    <rect class="cls-2" width="1920" height="1080"/>
    <g>
      <path class="cls-1" d="M661.56,559.8c-24.69-66.14-82.38-107.69-152.2-107.69-40.21,0-73.89,14.12-98.88,35.07v-224.33h-103.2v548.32h96.14v-39.11c5.56,6.18,11.65,11.81,18.25,16.82,23.56,17.99,53.26,28.27,87.68,28.27s66.05-10.09,92.11-28.27c44.51-31.04,73.01-85.73,73.01-154.25,0-27.3-4.59-52.48-12.92-74.83ZM412.11,634.08c0-34.78,16.14-61.52,42.04-74.28,10.87-5.4,23.46-8.3,37.29-8.3s26.42,2.9,37.29,8.3c25.87,12.75,42,39.5,42,74.28,0,49.97-32.57,83.65-79.29,83.65s-79.32-33.67-79.32-83.65Z"/>
      <path class="cls-1" d="M713.69,327.92v483.25h105.94v-483.25h-105.94Z"/>
      <path class="cls-1" d="M1102.77,523.13v133.75c0,39.11-25.54,65.72-63.57,65.72s-64.09-26.61-64.09-65.72v-198.82h-105.38v207.51c0,53.29,21.12,96.79,55.15,123.31,23.2,18.09,52.41,28.27,85.02,28.27,36.21,0,62.96-12.56,79.58-28.27,7.32-6.9,12.69-14.38,16.01-21.7v43.99h103.23v-288.04h-105.94Z"/>
      <path class="cls-1" d="M1429.42,450.53c-101.07,0-183.3,82.23-183.3,183.3v18.96h70.45c6.64,57.97,50.53,96.49,110.52,96.49.78,0,1.56-.03,2.34-.03,53.39-.85,94.22-31.1,109.06-79.26h-64.88c-8.36,15.71-25.44,24.76-44.51,24.76-24.76,0-46.49-15.75-50.85-40.83h163.95c4.29-37.55-6.12-70.76-27.3-94.13-19.94-22.03-49.42-35.33-85.11-35.33s-66.05,12.98-86.32,35.33c-13.27,14.67-22.32,33.38-25.96,55.08h-32.25c9.32-71.24,70.41-126.42,144.15-126.42,80.16,0,145.38,65.22,145.38,145.38s-65.22,145.38-145.38,145.38c-61.54,0-116.65-38.96-137.13-96.96l-35.76,12.63c25.82,73.12,95.3,122.25,172.89,122.25,101.07,0,183.3-82.23,183.3-183.3s-82.23-183.3-183.3-183.3ZM1429.79,579.97c23.07,0,40.47,13.05,47.83,33.48l-96.37.33c7.71-20.76,25.12-33.8,48.54-33.8Z"/>
    </g>
  </g>
</svg>