<?xml version="1.0" standalone="no"?>
<!DOCTYPE svg PUBLIC "-//W3C//DTD SVG 20010904//EN"
 "http://www.w3.org/TR/2001/REC-SVG-20010904/DTD/svg10.dtd">
<svg version="1.0" xmlns="http://www.w3.org/2000/svg"
 width="1080.000000pt" height="1080.000000pt" viewBox="0 0 1080.000000 1080.000000"
 preserveAspectRatio="xMidYMid meet">

<g transform="translate(0.000000,1080.000000) scale(0.100000,-0.100000)"
fill="#000000" stroke="none">
<path d="M0 5400 l0 -5400 5400 0 5400 0 0 5400 0 5400 -5400 0 -5400 0 0
-5400z m5634 2826 c47 -19 86 -88 86 -149 0 -68 -109 -837 -123 -869 -10 -24
-13 -25 -19 -10 -5 14 -7 13 -7 -5 -1 -16 -6 -21 -19 -18 -11 2 -25 -5 -33
-16 -7 -10 -19 -19 -25 -19 -7 0 -14 -7 -18 -15 -3 -8 -11 -15 -17 -15 -6 0
-20 -10 -30 -22 -11 -11 -19 -17 -19 -12 0 5 -7 0 -15 -10 -8 -11 -15 -16 -15
-12 0 4 -6 1 -13 -6 -8 -7 -27 -22 -42 -33 -16 -11 -44 -34 -61 -50 -17 -17
-37 -29 -43 -27 -6 2 -11 -1 -11 -6 0 -5 -13 -15 -30 -22 -16 -7 -30 -16 -30
-21 0 -5 -8 -9 -17 -9 -15 0 -16 -2 -3 -10 12 -8 11 -10 -6 -10 -12 0 -41 -18
-65 -39 -23 -22 -46 -38 -51 -35 -4 3 -8 1 -8 -5 0 -5 -17 -19 -37 -32 -21
-12 -49 -33 -63 -46 -26 -24 -126 -93 -135 -93 -7 0 -26 -16 -69 -56 -18 -18
-43 -35 -55 -39 -11 -3 -21 -11 -21 -16 0 -5 -6 -9 -14 -9 -8 0 -27 -13 -43
-30 -15 -16 -34 -30 -41 -30 -6 0 -22 -11 -34 -25 -12 -14 -28 -25 -35 -25 -7
0 -13 -4 -13 -10 0 -5 -6 -10 -13 -10 -7 0 -23 -11 -35 -25 -12 -14 -29 -25
-38 -25 -8 0 -12 -4 -9 -10 3 -5 1 -10 -6 -10 -7 0 -28 -12 -47 -27 -20 -16
-48 -35 -63 -43 -53 -29 -147 -105 -158 -128 -7 -15 -11 -123 -11 -312 l0
-290 -433 0 c-388 0 -439 2 -498 18 -266 74 -424 351 -350 614 37 135 139 257
269 320 l67 33 473 3 472 3 0 473 0 473 52 34 c29 19 64 39 78 46 14 6 18 12
10 12 -8 1 1 11 20 22 77 47 146 94 156 108 6 8 16 11 22 7 7 -4 10 -2 7 6 -2
8 21 29 58 53 34 22 65 45 69 51 4 6 21 17 38 24 16 7 30 17 30 22 0 6 7 8 14
5 11 -4 13 -1 9 10 -4 11 -2 14 5 9 7 -4 12 -3 12 3 0 8 83 67 113 80 4 1 25
18 45 37 20 19 40 34 44 34 15 0 96 61 102 76 3 8 10 13 15 9 5 -3 16 4 25 16
9 14 21 19 31 15 9 -3 14 -2 11 3 -8 12 61 64 74 56 6 -3 10 -2 10 2 0 5 10
10 23 11 12 2 105 16 207 31 217 34 249 36 294 17z m298 -1761 c796 -120 1442
-689 1670 -1470 57 -196 71 -307 72 -555 0 -247 -10 -333 -65 -539 -175 -661
-686 -1200 -1340 -1415 -237 -78 -311 -89 -656 -94 -487 -7 -701 23 -893 124
-259 137 -409 294 -540 565 -56 116 -72 179 -100 384 -16 114 -19 197 -19 450
0 310 0 310 18 260 80 -222 249 -436 452 -571 126 -84 361 -186 389 -169 5 3
10 1 10 -4 0 -6 8 -11 18 -11 13 0 14 2 4 9 -10 6 -10 10 3 21 8 7 15 9 15 4
0 -5 7 0 15 10 17 22 10 27 -80 60 -123 45 -283 138 -371 215 -97 84 -174 165
-174 180 0 6 19 24 43 41 23 17 80 59 126 93 46 34 104 77 130 94 25 18 54 40
63 49 10 9 26 22 36 28 28 16 69 45 134 93 31 24 59 43 63 43 3 0 12 6 19 13
29 27 64 54 121 92 33 22 68 48 78 57 17 17 31 22 50 19 5 -1 6 3 3 8 -4 5 -2
12 4 16 5 3 10 0 10 -8 0 -8 -27 -217 -61 -463 -40 -299 -59 -466 -55 -499 9
-80 33 -148 66 -182 l31 -33 232 0 c128 0 264 5 302 10 243 35 430 126 602
293 143 139 239 302 290 495 23 85 26 117 26 257 0 140 -3 172 -26 257 -53
198 -150 361 -302 506 -105 100 -216 170 -345 219 -142 53 -206 63 -428 70
-201 6 -203 6 -199 27 3 11 33 228 67 481 34 253 63 466 66 473 5 18 302 16
426 -3z"/>
<path d="M4978 3413 c6 -2 18 -2 25 0 6 3 1 5 -13 5 -14 0 -19 -2 -12 -5z"/>
<path d="M5033 3403 c9 -2 23 -2 30 0 6 3 -1 5 -18 5 -16 0 -22 -2 -12 -5z"/>
<path d="M5108 3393 c6 -2 18 -2 25 0 6 3 1 5 -13 5 -14 0 -19 -2 -12 -5z"/>
</g>
</svg>
